# Blender v2.78 (sub 0) OBJ File: ''
# www.blender.org
mtllib projector.mtl
o Cube
v -0.100000 -0.100000 0.100000
v -0.100000 0.100000 0.100000
v -0.100000 -0.100000 -0.100000
v -0.100000 0.100000 -0.100000
v 0.100000 -0.100000 0.100000
v 0.100000 0.100000 0.100000
v 0.100000 -0.100000 -0.100000
v 0.100000 0.100000 -0.100000
v -0.200000 0.200000 -0.200000
v -0.200000 -0.200000 -0.200000
v 0.200000 -0.200000 -0.200000
v 0.200000 0.200000 -0.200000
vt 0.7775 0.6482
vt 0.5831 0.8426
vt 0.5831 0.6482
vt 0.3208 0.4860
vt 0.0002 0.5184
vt 0.1376 0.4212
vt 0.1945 0.8426
vt 0.3888 0.6482
vt 0.3888 0.8426
vt 0.8055 0.5835
vt 0.6112 0.3891
vt 0.8055 0.3891
vt 0.0002 0.8426
vt 0.1945 0.6482
vt 0.6112 0.0002
vt 0.9998 0.3888
vt 0.6112 0.3888
vt 0.0002 0.1297
vt 0.1376 0.2269
vt 0.3208 0.1621
vt 0.6109 0.3024
vt 0.4429 0.3132
vt 0.3666 0.0002
vt 0.7775 0.8426
vt 0.3666 0.6479
vt 0.6112 0.5835
vt 0.0002 0.6482
vt 0.9998 0.0002
vn -1.0000 0.0000 0.0000
vn 0.0000 0.7071 0.7071
vn 1.0000 0.0000 0.0000
vn 0.0000 0.0000 1.0000
vn 0.0000 -1.0000 0.0000
vn 0.0000 1.0000 0.0000
vn 0.0000 0.0000 -1.0000
vn -0.7071 0.0000 0.7071
vn 0.7071 0.0000 0.7071
vn 0.0000 -0.7071 0.7071
usemtl None
s off
f 2/1/1 3/2/1 1/3/1
f 8/4/2 9/5/2 4/6/2
f 8/7/3 5/8/3 7/9/3
f 6/10/4 1/11/4 5/12/4
f 7/9/5 1/3/5 3/2/5
f 4/13/6 6/14/6 8/7/6
f 9/15/7 11/16/7 10/17/7
f 4/6/8 10/18/8 3/19/8
f 7/20/9 12/21/9 8/22/9
f 3/19/10 11/23/10 7/20/10
f 2/1/1 4/24/1 3/2/1
f 8/4/2 12/25/2 9/5/2
f 8/7/3 6/14/3 5/8/3
f 6/10/4 2/26/4 1/11/4
f 7/9/5 5/8/5 1/3/5
f 4/13/6 2/27/6 6/14/6
f 9/15/7 12/28/7 11/16/7
f 4/6/8 9/5/8 10/18/8
f 7/20/9 11/23/9 12/21/9
f 3/19/10 10/18/10 11/23/10
